# xmcd CD database file
#
# Track frame offsets:
#	150
#	14671
#	27184
#	40126
#	55134
#	67534
#	79587
#	92835
#	104608
#	116978
#	130365
#	143452
#	157623
#	172171
#	186256
#	200681
#	216124
#	231102
#	247055
#	259026
#	269787
#
# Disc length: 3777 seconds
#
# Revision: 0
# Processed by: cddbd v1.5.2PL0 Copyright (c) Steve Scherf et al.
# Submitted via: CDex 1.70beta2
#
DISCID=2f0ebf15
DTITLE=James P. Johnson - Giants of Jazz 1
DYEAR=1900
DGENRE=Jazz
TTITLE0=Keep Off the Grass: James P. Johnson 
TTITLE1=Carolina Shout: James P. Johnson 
TTITLE2=Preachin’ the Blues: Bessie Smith accompanied by James P. Johnson 
TTITLE3=Back Water Blues: Bessie Smith accompanied by James P. Johnson 
TTITLE4=All That I Had Is Gone: Jimmy Johnson
TTITLE5=Snowy Morning Blues: Jimmy Johnson
TTITLE6=Lucy Long: Original Jazz Hounds
TTITLE7=What’s the Use of Being Alone: Dunn’s Original Jazz Hounds 
TTITLE8=Chicago Blues: Jimmy Johnson and His Orchestra
TTITLE9=Guess Who’s in Town: Ethel Waters accompanied by James P. Johnson 
TTITLE10=My Handy Man: Ethel Waters accompanied by James P. Johnson 
TTITLE11=Riffs: Jimmy Johnson 
TTITLE12=Fare Thee Honey Blues: Jimmy Johnson and His Band
TTITLE13=What Is This Thing Called Love?: Jimmy Johnson 
TTITLE14=You’ve Got to Be Modernistic: Jimmy Johnson 
TTITLE15=Jingles: Jimmy Johnson 
TTITLE16=How Could I Be Blue: James P. Johnson and Clarence Williams with Their Two Pianos 
TTITLE17=Go Harlem: Jimmy Johnson and His Orchestra
TTITLE18=Dinah: Pee Wee Russell’s Rhythmakers
TTITLE19=Everybody Loves My Baby: Pee Wee, Zutty and James P.
TTITLE20=Rosetta: Frankie Newton and Orchestra
EXTD=
EXTT0=
EXTT1=
EXTT2=
EXTT3=
EXTT4=
EXTT5=
EXTT6=
EXTT7=
EXTT8=
EXTT9=
EXTT10=
EXTT11=
EXTT12=
EXTT13=
EXTT14=
EXTT15=
EXTT16=
EXTT17=
EXTT18=
EXTT19=
EXTT20=
PLAYORDER=
